<?xml version="1.0" encoding="UTF-8" standalone="no"?>
<svg
   xmlns:dc="http://purl.org/dc/elements/1.1/"
   xmlns:cc="http://creativecommons.org/ns#"
   xmlns:rdf="http://www.w3.org/1999/02/22-rdf-syntax-ns#"
   xmlns:svg="http://www.w3.org/2000/svg"
   xmlns="http://www.w3.org/2000/svg"
   xmlns:xlink="http://www.w3.org/1999/xlink"
   xmlns:sodipodi="http://sodipodi.sourceforge.net/DTD/sodipodi-0.dtd"
   xmlns:inkscape="http://www.inkscape.org/namespaces/inkscape"
   width="450"
   height="128.75"
   viewBox="0 0 360 103"
   version="1.1"
   id="svg3025"
   inkscape:version="0.48.5 r10040"
   sodipodi:docname="logo3.svg">
  <metadata
     id="metadata3063">
    <rdf:RDF>
      <cc:Work
         rdf:about="">
        <dc:format>image/svg+xml</dc:format>
        <dc:type
           rdf:resource="http://purl.org/dc/dcmitype/StillImage" />
        <dc:title></dc:title>
      </cc:Work>
    </rdf:RDF>
  </metadata>
  <defs
     id="defs3061">
    <linearGradient
       id="linearGradient3833">
      <stop
         style="stop-color:#fcfdff;stop-opacity:1;"
         offset="0"
         id="stop3835" />
      <stop
         style="stop-color:#983999;stop-opacity:1;"
         offset="1"
         id="stop3837" />
    </linearGradient>
    <linearGradient
       inkscape:collect="always"
       xlink:href="#linearGradient3833"
       id="linearGradient3839"
       x1="125.82103"
       y1="16.366478"
       x2="158.53127"
       y2="77.900566"
       gradientUnits="userSpaceOnUse"
       gradientTransform="translate(185.95302,1.8320494)" />
    <linearGradient
       inkscape:collect="always"
       xlink:href="#linearGradient3833"
       id="linearGradient3847"
       x1="115.29546"
       y1="15.394888"
       x2="77.565346"
       y2="82.434662"
       gradientUnits="userSpaceOnUse"
       gradientTransform="translate(185.95302,1.8320494)" />
    <linearGradient
       inkscape:collect="always"
       xlink:href="#linearGradient3833-7"
       id="linearGradient3847-1"
       x1="115.29546"
       y1="15.394888"
       x2="77.565346"
       y2="82.434662"
       gradientUnits="userSpaceOnUse"
       gradientTransform="translate(185.95302,1.8320494)" />
    <linearGradient
       id="linearGradient3833-7">
      <stop
         style="stop-color:#fcfdff;stop-opacity:1;"
         offset="0"
         id="stop3835-4" />
      <stop
         style="stop-color:#983999;stop-opacity:1;"
         offset="1"
         id="stop3837-0" />
    </linearGradient>
    <linearGradient
       inkscape:collect="always"
       xlink:href="#linearGradient3833-7"
       id="linearGradient3839-9"
       x1="127.38104"
       y1="46.006737"
       x2="191.29155"
       y2="135.88107"
       gradientUnits="userSpaceOnUse"
       gradientTransform="matrix(2.7637799,0,0,2.7637799,278.97757,-143.12283)" />
    <linearGradient
       id="linearGradient3047">
      <stop
         style="stop-color:#fcfdff;stop-opacity:1;"
         offset="0"
         id="stop3049" />
      <stop
         style="stop-color:#983999;stop-opacity:1;"
         offset="1"
         id="stop3051" />
    </linearGradient>
    <linearGradient
       y2="145.83716"
       x2="30.372662"
       y1="46.25629"
       x1="114.8734"
       gradientTransform="matrix(2.7637799,0,0,2.7637799,278.97757,-143.12283)"
       gradientUnits="userSpaceOnUse"
       id="linearGradient3055"
       xlink:href="#linearGradient3833-7"
       inkscape:collect="always" />
  </defs>
  <sodipodi:namedview
     pagecolor="#ffffff"
     bordercolor="#666666"
     borderopacity="1"
     objecttolerance="10"
     gridtolerance="10"
     guidetolerance="10"
     inkscape:pageopacity="0"
     inkscape:pageshadow="2"
     inkscape:window-width="1920"
     inkscape:window-height="1058"
     id="namedview3059"
     showgrid="false"
     inkscape:zoom="0.87333889"
     inkscape:cx="196.27"
     inkscape:cy="40.038805"
     inkscape:window-x="-8"
     inkscape:window-y="-8"
     inkscape:window-maximized="1"
     inkscape:current-layer="svg3025"
     showguides="true"
     inkscape:guide-bbox="true" />
  <path
     d="m 3.6640956,1.8320494 350.9537844,0 0,99.3359006 -350.9537844,0 0,-99.3359006 z"
     id="path3027"
     inkscape:connector-curvature="0"
     style="fill:#fcfdff" />
  <path
     d="m 304.01689,15.332163 c 0.92,-10.96 1.29386,10.426363 1.55386,-0.563637 0.31,9.25 -0.53773,19.663523 0.50227,28.873523 1.02,14.17 1.35,29.17 -4.87,42.31 -3.16,6.88 -9.49,12.71 -17.27,13.4 -5.88,0.950001 -11.75,-1.49 -16.07,-5.39 -7.87,-7.01 -12.98,-16.91 -14.75,-27.24 -0.97,-6.13 -0.41,-13.63 5.05,-17.57 5.43,-3.9 12.68,-1.54 17.76,1.79 7.1,4.92 13.41,11.72 15.97,20.14 0.96,3.34 1.46,7.69 -1.46,10.23 -5.61,4.64 -15.39,3.73 -19.25,-2.78 -1.98,-2.66 -1.52,-7.11 1.74,-8.55 3.99,1.7 6.05,6.16 10.15,7.66 3.78,1.29 6.89,-3.16 6.38,-6.58 -1.03,-7.96 -9.54,-15.23 -17.68,-12.4 -5.7,2.05 -11.77,8.04 -9.17,14.58 4.43,9.39 16.15,14.46 26.14,12.1 4.83,-1.48 8.13,-5.87 10.07,-10.34 3.45,-8.27 4.48387,-50.839886 5.20387,-59.669886 z"
     id="path3039"
     inkscape:connector-curvature="0"
     style="fill:url(#linearGradient3847);fill-opacity:1"
     sodipodi:nodetypes="cccccccccccccccccccc" />
  <path
     d="m 308.29916,13.6058 c 1.24,-6.9200007 1.43386,7.758863 1.65386,0.758863 0.47,8 -0.36,17.487386 0.63,25.447386 0.76,6.53 1.33,13.26 4.32,19.23 3.18,6.77 7.9,13.6 15.28,16.14 5.56,2.32 12.39,1.88 17.21,-1.88 2.99,-2.79 2.71,-7.42 2.05,-11.11 -0.75,-4.43 -4.8,-8.27 -9.49,-7.62 -5.63,0.16 -9.51,4.68 -12.24,9.11 -2.11,-0.94 -4.78,-1.59 -5.56,-4.09 -1.9,-4.48 2.02,-9.25 6.34,-10.25 7.97,-1.88 17.61,0.8 22.11,8.01 4.15,6.31 3.43,14.73 0.38,21.34 -4.2,8.66 -14.99,12.34 -24.03,10.48 -6.52,-1.5 -10.69,-7.49 -13.32,-13.23 -5.13,-12.31 -6.10386,-49.176249 -5.33386,-62.336249 z"
     id="path3041"
     inkscape:connector-curvature="0"
     style="fill:url(#linearGradient3839);fill-opacity:1"
     sodipodi:nodetypes="cccccccccccccccc" />
  <path
     style="fill:#993399"
     inkscape:connector-curvature="0"
     d="m 268.2721,9.9906846 c 3.37,-1.24 6.74,-2.47 10.12,-3.7 -0.01,3.9100004 -0.01,7.8199994 -0.04,11.7299994 3.74,-1.73 8.24,-2.72 12.14,-0.91 3.27,1.61 4.55,5.43 4.61,8.85 0.18,5.83 -0.01,11.66 0.07,17.49 -3.41,-0.01 -6.83,-0.01 -10.24,0 -0.14,-5.79 0.36,-11.61 -0.22,-17.38 -0.54,-2.78 -3.78,-1.91 -5.76,-1.64 -0.99,6.29 -0.47,12.67 -0.54,19 -3.38,0.01 -6.77,0.01 -10.15,0.01 0.02,-11.15 0,-22.3 0.01,-33.4499994 z"
     id="path22" />
  <path
     style="fill:#000000"
     inkscape:connector-curvature="0"
     d="m 8.7120956,7.2006846 c 3.6700004,-0.01 7.3400004,-0.01 11.0200004,0.01 -0.03,9.1399994 0.03,18.2799994 -0.04,27.4199994 5.72,0.01 11.43,0 17.15,0.01 -0.01,2.9 -0.01,5.81 -0.01,8.71 -9.37,0 -18.74,-0.01 -28.1200004,0 0.01,-12.05 0.03,-24.1 0,-36.1499994 z"
     id="path24" />
  <path
     style="fill:#993399"
     inkscape:connector-curvature="0"
     d="m 135.4821,7.2206846 c 3.75,-0.03 7.49,-0.03 11.24,-0.01 0,4.4900004 0,8.9799994 -0.02,13.4799994 4.01,0 8.02,0 12.03,-0.02 -0.01,-4.49 -0.01,-8.989999 -0.01,-13.4799994 3.7,0 7.41,0 11.11,0 0,12.0899994 -0.01,24.1699994 0.01,36.2499994 -3.72,0 -7.43,0 -11.15,-0.01 0.05,-4.64 0.04,-9.29 0.03,-13.94 -4.01,-0.01 -8.01,-0.01 -12.02,0 0.03,4.65 0.02,9.3 0.02,13.94 -3.74,0.01 -7.49,0.01 -11.23,0 0.11,-12.07 0.03,-24.14 -0.01,-36.2099994 z"
     id="path26" />
  <path
     style="fill:#993399"
     inkscape:connector-curvature="0"
     d="m 232.0521,9.9706846 c 3.34,-1.22 6.67,-2.46 10,-3.71 0.01,12.3999994 -0.02,24.7899994 0.01,37.1899994 -3.34,-0.01 -6.68,-0.01 -10.02,0 0.03,-11.16 0,-22.32 0.01,-33.4799994 z"
     id="path28" />
  <path
     style="fill:#993399"
     inkscape:connector-curvature="0"
     d="m 248.8121,9.9506846 c 3.3,-1.23 6.6,-2.47 9.91,-3.67 0,3.46 0,6.9299994 -0.02,10.3899994 2.12,0 4.24,0 6.36,0 -0.01,2.42 -0.01,4.84 -0.02,7.27 -2.1,-0.02 -4.2,-0.03 -6.3,-0.04 0.05,3.84 -0.36,7.74 0.3,11.55 1.9,1.54 4.16,-0.1 6.17,-0.5 -0.48,2.6 -0.93,5.21 -1.35,7.83 -4.51,1.12 -11.2,2.86 -14.04,-2.04 -1.91,-5.36 -0.64,-11.25 -0.99,-16.82 -1.49,-0.01 -2.97,-0.02 -4.45,-0.03 0,-2.4 -0.01,-4.8 -0.01,-7.2 1.49,-0.01 2.98,-0.02 4.47,-0.03 -0.01,-2.24 -0.02,-4.47 -0.03,-6.7099994 z"
     id="path30" />
  <path
     style="fill:#000000"
     inkscape:connector-curvature="0"
     d="m 39.492096,16.560684 c 3.41,-0.02 6.82,-0.02 10.24,0 0.13,5.69 -0.3,11.41 0.21,17.08 0.24,3.26 6.04,3.16 6.13,-0.14 0.47,-5.63 0.08,-11.3 0.19,-16.95 3.38,0 6.76,-0.01 10.14,0 -0.05,8.93 -0.02,17.87 -0.01,26.8 -3.37,0 -6.74,0 -10.1,0 0.01,-0.4 0.02,-1.21 0.03,-1.61 -4.03,2.38 -9.65,3.2 -13.57,0.17 -3.11,-2.63 -3.18,-7.05 -3.26,-10.8 0.13,-4.85 0.06,-9.7 0,-14.55 z"
     id="path32" />
  <path
     style="fill:#000000"
     inkscape:connector-curvature="0"
     d="m 80.632096,17.680684 c 3.83,-1.9 8.68,-2.71 12.42,-0.17 3.04,2.13 3.75,6.11 3.78,9.58 0.02,5.42 -0.02,10.84 0,16.26 -3.37,0 -6.74,0 -10.12,0 -0.18,-5.74 0.44,-11.55 -0.34,-17.25 -0.33,-3.12 -5.71,-3.09 -6.11,-0.09 -0.5,5.76 -0.08,11.57 -0.21,17.35 -3.37,-0.02 -6.75,-0.02 -10.12,0 0,-8.94 0.03,-17.87 -0.01,-26.81 3.53,0.45 7.64,-1.12 10.71,1.13 z"
     id="path34" />
  <path
     style="fill:#000000"
     inkscape:connector-curvature="0"
     d="m 103.7421,18.160684 c 3.36,-2.97 8.44,-2.75 12.14,-0.5 3.08,-2.28 7.29,-0.66 10.85,-1.1 -0.02,7.53 0,15.05 0,22.57 0,3.46 -0.68,7.29 -3.39,9.72 -3.25,2.91 -7.73,3.57 -11.88,4.28 -1.25,-1.79 -2.52,-3.57 -3.8,-5.34 2.29,-0.53 4.71,-0.77 6.84,-1.83 1.83,-0.77 1.85,-2.99 2.47,-4.59 -3.45,1.83 -7.66,3.25 -11.4,1.34 -3.96,-1.9 -5.28,-6.65 -5.49,-10.69 -0.210004,-4.78 0.05,-10.28 3.66,-13.86 z"
     id="path36" />
  <path
     style="fill:#993399"
     inkscape:connector-curvature="0"
     d="m 174.1721,23.450684 c 3.62,-9.17 18.73,-10.04 23.34,-1.36 1.78,3.25 1.77,7.04 1.94,10.63 -5.92,0.1 -11.84,-0.08 -17.75,0.15 1.17,1.35 1.94,3.5 3.92,3.84 3.15,0.62 6.22,-0.65 9.16,-1.61 1.3,1.98 2.59,3.97 3.86,5.98 -5.92,2.76 -13.23,4.31 -19.33,1.25 -6.53,-3.55 -7.7,-12.49 -5.14,-18.88 z"
     id="path38" />
  <path
     style="fill:#993399"
     inkscape:connector-curvature="0"
     d="m 202.9421,18.490684 c 5.39,-2.09 11.3,-2.87 17.03,-1.95 3.81,0.62 7.17,3.79 7.29,7.78 0.33,6.36 -0.01,12.74 0.15,19.11 -3.46,0.01 -7.04,0.41 -10.35,-0.87 -3.6,1.27 -7.76,2.22 -11.34,0.36 -5.57,-2.83 -6.09,-12.1 -0.62,-15.29 3.89,-2.34 8.58,-1.68 12.8,-0.81 -0.05,-0.78 -0.14,-2.33 -0.19,-3.1 -3.99,-1.66 -8.25,-0.62 -12.11,0.85 -0.88,-2.03 -1.77,-4.05 -2.66,-6.08 z"
     id="path40" />
  <path
     style="fill:#ffffff"
     inkscape:connector-curvature="0"
     d="m 181.7921,26.820684 c 1.02,-1.44 1.66,-3.62 3.73,-3.83 2.66,-0.73 4.19,1.9 5.34,3.79 -3.02,0.15 -6.05,0.16 -9.07,0.04 z"
     id="path42" />
  <path
     style="fill:#ffffff"
     inkscape:connector-curvature="0"
     d="m 110.5921,25.120684 c 1.17,-2.58 4.06,-1.19 6.02,-0.51 -0.06,3.5 0.19,7.01 -0.22,10.5 -1.54,1.04 -3.67,1.76 -5.26,0.39 -1.66,-3.12 -1.44,-7.06 -0.54,-10.38 z"
     id="path44" />
  <path
     style="fill:#ffffff"
     inkscape:connector-curvature="0"
     d="m 211.1221,32.800684 c 1.84,-1.75 4.52,-0.52 6.74,-0.46 -0.01,1.04 -0.02,3.12 -0.03,4.16 -2.2,0.35 -4.95,1.91 -6.77,-0.11 -0.48,-1.11 -0.63,-2.54 0.06,-3.59 z"
     id="path46" />
  <text
     xml:space="preserve"
     style="font-size:32px;font-style:normal;font-weight:normal;line-height:125%;letter-spacing:0px;word-spacing:0px;fill:#000000;fill-opacity:1;stroke:none;font-family:Sans"
     x="9.8267488"
     y="67.848137"
     id="text3020"
     sodipodi:linespacing="125%"><tspan
       sodipodi:role="line"
       id="tspan3022"
       x="9.8267488"
       y="67.848137"
       style="font-size:17.60000038px;font-style:normal;font-variant:normal;font-weight:normal;font-stretch:normal;font-family:Gisha;-inkscape-font-specification:Gisha">Asthma Guided Consultation</tspan></text>
  <flowRoot
     xml:space="preserve"
     id="flowRoot3024"
     style="font-size:40px;font-style:normal;font-weight:normal;line-height:125%;letter-spacing:0px;word-spacing:0px;fill:#000000;fill-opacity:1;stroke:none;font-family:Sans"
     transform="scale(0.8,0.8)"><flowRegion
       id="flowRegion3026"><rect
         id="rect3028"
         width="4.8579545"
         height="42.507103"
         x="-214.96449"
         y="85.838066" /></flowRegion><flowPara
       id="flowPara3030"></flowPara></flowRoot></svg>
